<svg xmlns="http://www.w3.org/2000/svg" viewBox="0 0 64 80" x="0px" y="0px"><g data-name="Layer 17"><path d="M63,52.25c0-.084-.011-.166-.012-.25H63V15.76a10.53,10.53,0,0,0-3.231-7.6L57,5.47V2a1,1,0,0,0-1-1H32a1,1,0,0,0-1,1V5.586L28.222,8.364A10.926,10.926,0,0,0,25,16.143V27.7a5.569,5.569,0,0,0-1.8,1.427,6.269,6.269,0,0,0-6.061,2A6.56,6.56,0,0,0,15.849,31C12.624,31,10,33.243,10,36h2c0-2.013,2.588-3.608,5.259-2.776l.759.235.4-.685a4.239,4.239,0,0,1,4.9-1.55l.758.235.4-.685A4.03,4.03,0,0,1,27.97,29a4.028,4.028,0,0,1,3.489,1.774l.4.685.759-.235a4.436,4.436,0,0,1,4.36.883l.687.648.686-.648A4.314,4.314,0,0,1,41.3,31c2.122,0,3.848,1.346,3.848,3v1h1C48.273,35,50,36.346,50,38h2c0-2.5-2.151-4.571-4.953-4.941A5.379,5.379,0,0,0,43,29.232V19H57V37.519c-.053-.055-.1-.115-.153-.169a1.2,1.2,0,0,0-1.7,0,18.843,18.843,0,0,1-13.433,5.584H22.284A18.845,18.845,0,0,1,8.847,37.35a1.2,1.2,0,0,0-1.7,0A20.966,20.966,0,0,0,1,52.25V62a1,1,0,0,0,1,1H62a1,1,0,0,0,1-1ZM57.76,9H34.649l-.987-2H55.705ZM55,3V5H33V3ZM32.745,29.13A6.137,6.137,0,0,0,27.97,27a6.9,6.9,0,0,0-.97.077V16.143a8.943,8.943,0,0,1,2.636-6.365l2.12-2.12,2.521,5.111a7.04,7.04,0,0,1,.723,3.1V29.077A6.614,6.614,0,0,0,32.745,29.13ZM58,17H42a1,1,0,0,0-1,1V29.022A6.427,6.427,0,0,0,37.667,30.1a6.149,6.149,0,0,0-.667-.39V15.866a9.05,9.05,0,0,0-.929-3.982L35.635,11H59.543A8.483,8.483,0,0,1,61,15.76V43.31a20.891,20.891,0,0,0-2-3.4V18A1,1,0,0,0,58,17ZM3,61V52.25A18.974,18.974,0,0,1,8.021,39.333a20.817,20.817,0,0,0,14.263,5.605H41.716a20.814,20.814,0,0,0,14.262-5.6A18.967,18.967,0,0,1,61,52.25V61Z"/><path d="M37.83,38.459l.82-.2a2.624,2.624,0,0,1,.617-.081A2.78,2.78,0,0,1,42,41h2a4.757,4.757,0,0,0-5.035-4.808A4.711,4.711,0,0,0,35,34v2a2.732,2.732,0,0,1,2.5,1.684Z"/><path d="M21.888,36a4.863,4.863,0,0,1,.925.1l.375-1.965a6.91,6.91,0,0,0-1.3-.131C18.642,34,16,36.243,16,39h2C18,37.346,19.744,36,21.888,36Z"/><path d="M49,47H43v2H21V47H15v2H11v8h4v2h6V57H43v2h6V57h4V49H49ZM13,55V51h2v4Zm6,2H17V49h2Zm2-2V51H43v4Zm26,2H45V49h2Zm4-6v4H49V51Z"/></g></svg>
