<svg xmlns="http://www.w3.org/2000/svg" xmlns:xlink="http://www.w3.org/1999/xlink" version="1.1" x="0px" y="0px" viewBox="0 0 64 80" style="enable-background:new 0 0 64 64;" xml:space="preserve"><path d="M54,41.817c0-5.668-1.897-15.95-2.463-18.889c0.86-0.224,1.499-1,1.499-1.929v-4c0-1.103-0.897-2-2-2h-4v-2.644  c0-1.436-0.798-2.727-2.081-3.368l-0.413-0.207c-0.274-0.137-0.509-0.345-0.679-0.6l-1.018-1.527  c-0.94-1.409-2.718-2.017-4.325-1.483c-0.722,0.241-1.514-0.006-1.972-0.617l-0.786-1.047c-0.655-0.874-1.656-1.42-2.746-1.497  c-1.098-0.082-2.159,0.321-2.931,1.094l-2.183,2.184c-0.197,0.196-0.484,0.264-0.747,0.177L25.287,4.84  c-0.984-0.326-2.056-0.076-2.793,0.66l-1.085,1.086c-0.736,0.735-0.989,1.806-0.647,2.83c0.088,0.266,0.008,0.471-0.075,0.596  c-0.141,0.212-0.382,0.347-0.661,0.368c-0.8,0.062-1.463,0.351-1.97,0.858c-1.096,1.096-0.963,2.659-0.667,3.762h-3.352  c-1.103,0-2,0.897-2,2v4c0,0.693,0.355,1.304,0.892,1.663c-0.546,2.302-2.489,10.982-2.489,17.856c0,7.229,2.128,16.774,2.52,18.231  c0.052,0.193,0.078,0.388,0.078,0.593v2.151c0,0.308,0.142,0.599,0.385,0.788s0.559,0.258,0.858,0.182l8.9-2.225  c0.879-0.221,1.782-0.292,2.687-0.208L52.91,62.49c0.03,0.003,0.061,0.004,0.091,0.004c0.385,0,0.739-0.223,0.905-0.576  c0.178-0.381,0.099-0.833-0.199-1.131l-3.116-3.116c-0.167-0.168-0.214-0.429-0.116-0.647C51.379,55.012,54,47.365,54,41.817z   M19.469,12.652c0.163-0.163,0.396-0.254,0.71-0.278c0.897-0.069,1.689-0.527,2.173-1.256c0.458-0.691,0.57-1.541,0.294-2.372  C22.559,8.482,22.626,8.196,22.823,8l1.085-1.086c0.198-0.197,0.485-0.264,0.747-0.177l1.869,0.624  c0.985,0.327,2.056,0.076,2.793-0.66L31.5,4.518c0.363-0.362,0.867-0.547,1.375-0.513c0.511,0.036,0.98,0.292,1.288,0.702  l0.786,1.047c0.975,1.301,2.664,1.83,4.205,1.313c0.752-0.249,1.587,0.035,2.028,0.696l1.018,1.527  c0.364,0.545,0.865,0.987,1.449,1.278l0.412,0.207c0.603,0.301,0.977,0.906,0.977,1.58V15H19.491  C19.22,14.275,18.98,13.142,19.469,12.652z M14.037,17h37l0.001,4H14.037V17z M48.738,56H45v2h3.54  c0.119,0.402,0.331,0.778,0.637,1.085l1.163,1.163l-24.293-2.209c-1.126-0.101-2.255-0.014-3.353,0.26l-7.658,1.914v-0.87  c0-0.378-0.049-0.753-0.146-1.113c-0.017-0.063-0.039-0.153-0.058-0.229H17v-2h-2.623c-0.768-3.643-1.938-10.359-1.938-15.481  c0-6.708,1.991-15.514,2.466-17.519h34.609C49.97,25.361,52,36.179,52,41.817C52,46.62,49.767,53.603,48.738,56z"/><path d="M27.219,10.646h-2c0,1.983,1.614,3.598,3.598,3.598v-2C27.936,12.244,27.219,11.527,27.219,10.646z"/><path d="M36.609,8.348v2c0.881,0,1.598,0.717,1.598,1.598h2C40.207,9.962,38.593,8.348,36.609,8.348z"/><rect x="31.037" y="7" width="2" height="2"/><rect x="32.362" y="11.676" transform="matrix(0.7071 -0.7071 0.7071 0.7071 0.8658 27.2796)" width="2" height="1.837"/><path d="M44.521,28.4l-0.416-0.139c-1.683-0.562-3.503-0.22-4.867,0.918c-2.939,2.449-5.024,5.694-6.03,9.385l-0.894,3.276  l-0.894-3.276c-1.006-3.691-3.092-6.937-6.03-9.384c-1.364-1.138-3.184-1.48-4.868-0.919l-0.414,0.138  c-2.43,0.81-3.883,3.313-3.381,5.826c0.234,1.172,0.877,2.229,1.811,2.976l1.282,1.025c1.74,1.392,3.609,2.646,5.555,3.727  L31,45.077V49H18v2h13h2h13v-2H33v-3.592c0.038-0.015,0.077-0.025,0.113-0.045l6.14-3.41c1.946-1.081,3.814-2.335,5.554-3.727  l1.282-1.025c0.934-0.746,1.577-1.804,1.811-2.976C48.403,31.714,46.95,29.209,44.521,28.4z M21.069,36.664l-1.282-1.025  c-0.566-0.452-0.957-1.094-1.099-1.806c-0.305-1.524,0.577-3.045,2.053-3.536l0.415-0.139c0.324-0.107,0.655-0.16,0.983-0.16  c0.709,0,1.405,0.246,1.971,0.719c2.623,2.185,4.483,5.08,5.381,8.373l0.051,0.186c-3.466-4.317-5.96-5.614-6.094-5.681  l-0.899,1.786c0.031,0.016,2.647,1.411,6.232,6.176l-2.433-1.352C24.498,39.178,22.723,37.987,21.069,36.664z M45.939,33.833  c-0.142,0.712-0.533,1.354-1.099,1.806l-1.282,1.025c-1.653,1.323-3.428,2.514-5.276,3.541l-2.434,1.352  c3.585-4.765,6.2-6.16,6.232-6.176l-0.452-0.892l-0.447-0.895c-0.134,0.067-2.628,1.364-6.094,5.681l0.051-0.186  c0.898-3.293,2.758-6.188,5.381-8.374c0.565-0.472,1.261-0.718,1.97-0.718c0.328,0,0.66,0.053,0.983,0.16l0.416,0.14  C45.362,30.788,46.245,32.309,45.939,33.833z"/></svg>
