<svg xmlns="http://www.w3.org/2000/svg" xmlns:xlink="http://www.w3.org/1999/xlink" version="1.1" x="0px" y="0px" viewBox="0 0 64 80" style="enable-background:new 0 0 64 64;" xml:space="preserve"><g><path d="M63,14.5h-0.024C62.688,11.238,59.247,3,32,3S1.312,11.238,1.024,14.5H1c0,0.065,0.008,0.127,0.009,0.191   C1.003,14.801,1,14.905,1,15v9c0,2.359,1.579,9.184,19.001,11.338c0.007,4.346,3.113,8.063,7.39,8.84l0.135,0.024   C24.826,45.758,23,48.667,23,52c0,4.963,4.037,9,9,9s9-4.037,9-9c0-3.333-1.826-6.242-4.525-7.798l0.135-0.024   c4.277-0.776,7.383-4.494,7.39-8.84C61.421,33.184,63,26.359,63,24v-9c0-0.095-0.003-0.199-0.009-0.309   C62.992,14.627,63,14.565,63,14.5z M32,5c20.97,0,28.68,5.169,28.985,9.717c-0.058,1.266-0.609,2.383-1.563,3.36   C54.799,14.71,45.582,13,32,13S9.201,14.71,4.578,18.077c-0.955-0.977-1.506-2.094-1.563-3.36C3.32,10.169,11.03,5,32,5z M38,23.84   C36.011,23.947,33.996,24,32,24s-4.011-0.053-6-0.16V23c0-0.552,0.448-1,1-1h10c0.552,0,1,0.448,1,1V23.84z M37,20H27   c-1.654,0-3,1.346-3,3v0.714c-7.294-0.541-14.01-1.884-17.797-4.328C10.621,16.478,19.285,15,32,15s21.379,1.478,25.797,4.386   C54.01,21.83,47.294,23.174,40,23.714V23C40,21.346,38.654,20,37,20z M3,24v-4.702C7.051,23.611,17.13,26,32,26   c2.099,0,4.096-0.05,6-0.144V29h-8v2h8v2.843C36.132,33.944,34.138,34,32,34C10.595,34,3,28.613,3,24z M26,35.847   C27.864,35.943,29.849,36,32,36s4.136-0.057,6-0.153V36c0,0.552-0.448,1-1,1H27c-0.552,0-1-0.448-1-1V35.847z M31,54   c0-0.552,0.448-1,1-1s1,0.448,1,1s-0.448,1-1,1S31,54.552,31,54z M39,52c0,3.519-2.614,6.432-6,6.92v-2.104   c1.161-0.414,2-1.514,2-2.816c0-1.654-1.346-3-3-3s-3,1.346-3,3c0,1.302,0.839,2.402,2,2.816v2.104c-3.386-0.488-6-3.401-6-6.92   c0-3.859,3.141-7,7-7S39,48.141,39,52z M36.252,42.211L32,42.984l-4.252-0.773c-3.252-0.591-5.616-3.37-5.727-6.652   c0.639,0.061,1.301,0.116,1.979,0.165V36c0,1.654,1.346,3,3,3h10c1.654,0,3-1.346,3-3v-0.276c0.678-0.049,1.34-0.104,1.979-0.165   C41.868,38.841,39.504,41.62,36.252,42.211z M61,24c0,3.984-5.672,8.541-21,9.711v-7.974c10.504-0.726,17.724-2.953,21-6.44V24z"/><path d="M23.932,30.736c0.657,0.045,1.329,0.085,2.019,0.12l0.1-1.998c-0.676-0.033-1.336-0.073-1.981-0.118L23.932,30.736z"/><path d="M17.855,30.096c0.656,0.097,1.329,0.188,2.027,0.271l0.234-1.986c-0.681-0.08-1.334-0.17-1.973-0.263L17.855,30.096z"/><path d="M12.758,29.104c0.65,0.163,1.333,0.316,2.044,0.461l0.396-1.961c-0.68-0.137-1.333-0.284-1.956-0.439L12.758,29.104z"/></g></svg>
