<svg xmlns="http://www.w3.org/2000/svg" viewBox="0 0 512 640" x="0px" y="0px"><g><path d="M441.939,165.312,416,55.07V24a8,8,0,0,0-8-8H120a8,8,0,0,0-8,8V55.07L86.061,165.312A228.3,228.3,0,0,0,80,217.534V458a38.043,38.043,0,0,0,38,38H440a8,8,0,0,0,8-8V217.534A228.3,228.3,0,0,0,441.939,165.312ZM432,217.534V457.876l-17.054-29.845a8,8,0,0,0-13.892,0L384,457.876V217.534a212.243,212.243,0,0,1,5.636-48.556L408,90.929l18.364,78.048A212.258,212.258,0,0,1,432,217.534ZM426.215,480h-36.43L408,448.125ZM400,48H384V32h16Zm-48,0V32h16V48Zm-32,0V32h16V48Zm-32,0V32h16V48Zm-32,0V32h16V48Zm-32,0V32h16V48Zm-32,0V32h16V48Zm-32,0V32h16V48ZM128,32h16V48H128ZM96,458V217.534a212.243,212.243,0,0,1,5.636-48.556L126.336,64H397.9L374.061,165.312A228.3,228.3,0,0,0,368,217.534V480H118A22.025,22.025,0,0,1,96,458Z"/><path d="M408,328a8,8,0,0,0-8,8v48a8,8,0,0,0,16,0V336A8,8,0,0,0,408,328Z"/><path d="M408,280a8,8,0,0,0-8,8v16a8,8,0,0,0,16,0V288A8,8,0,0,0,408,280Z"/><path d="M408,184a8,8,0,0,0-8,8v64a8,8,0,0,0,16,0V192A8,8,0,0,0,408,184Z"/><circle cx="206" cy="264" r="14"/><circle cx="262" cy="264" r="14"/><path d="M272,304a8,8,0,0,0-8,8v10.343A5.657,5.657,0,0,1,258.343,328H245.657A5.657,5.657,0,0,1,240,322.343v-4.5a16,16,0,1,0-16,0v4.5A5.657,5.657,0,0,1,218.343,328H205.657A5.657,5.657,0,0,1,200,322.343V312a8,8,0,0,0-16,0v10.343A21.656,21.656,0,0,0,205.657,344h12.686A21.487,21.487,0,0,0,232,339.149,21.487,21.487,0,0,0,245.657,344h12.686A21.656,21.656,0,0,0,280,322.343V312A8,8,0,0,0,272,304Z"/><path d="M244.422,360.845a27.917,27.917,0,0,1-24.844,0,8,8,0,1,0-7.156,14.31,43.989,43.989,0,0,0,39.156,0,8,8,0,1,0-7.156-14.31Z"/><path d="M344.086,111.4A21.376,21.376,0,0,0,320.6,87.914a21.375,21.375,0,0,0-33.208,0A21.376,21.376,0,0,0,263.914,111.4a21.375,21.375,0,0,0,0,33.208,21.252,21.252,0,0,0,6.145,17.337A21.6,21.6,0,0,0,272,163.659v7.288a7.964,7.964,0,0,0-2.676,3.783L258.234,208h-53.29l-21.789-43.578a8,8,0,0,0-14.847,1.38l-7.021,24.572A241.364,241.364,0,0,0,152,256.686V392H128a8,8,0,0,0-7.761,9.94l7.435,29.74-7.263,21.79A8,8,0,0,0,128,464H336a8,8,0,0,0,7.589-10.53l-7.263-21.79,7.435-29.74A8,8,0,0,0,336,392H312V271.9a241.092,241.092,0,0,0-10.057-68.917L304,201.615l19.562,13.041A8,8,0,0,0,336,208V163.659a21.743,21.743,0,0,0,1.941-1.718,21.249,21.249,0,0,0,6.145-17.337,21.375,21.375,0,0,0,0-33.208ZM320.411,434.53,324.9,448H139.1l4.489-13.47a7.992,7.992,0,0,0,.172-4.47L138.246,408H325.754l-5.515,22.06A7.992,7.992,0,0,0,320.411,434.53ZM296,271.9V392H168V256.686a225.314,225.314,0,0,1,8.672-61.917l1.37-4.8,14.8,29.6A8,8,0,0,0,200,224h64a8,8,0,0,0,7.589-5.47l1.948-5.843a7.956,7.956,0,0,0,10.9,1.969l3.533-2.356A225.116,225.116,0,0,1,296,271.9Zm12.438-86.559a8,8,0,0,0-8.876,0L288,193.052V168.8a21.368,21.368,0,0,0,32,0v24.257Zm23.84-52.26a8,8,0,0,0-4.687,11.316,5.335,5.335,0,0,1-7.191,7.191,8,8,0,0,0-11.316,4.687,5.333,5.333,0,0,1-10.168,0,8,8,0,0,0-11.316-4.687,5.335,5.335,0,0,1-7.191-7.191,8,8,0,0,0-4.687-11.316,5.333,5.333,0,0,1,0-10.168,8,8,0,0,0,4.687-11.316,5.335,5.335,0,0,1,7.191-7.191,8,8,0,0,0,11.316-4.687,5.333,5.333,0,0,1,10.168,0,8,8,0,0,0,11.316,4.687,5.335,5.335,0,0,1,7.191,7.191,8,8,0,0,0,4.687,11.316,5.333,5.333,0,0,1,0,10.168Z"/></g></svg>
